<svg width="136" height="36" viewBox="0 0 136 36" fill="none" xmlns="http://www.w3.org/2000/svg">
<path fill-rule="evenodd" clip-rule="evenodd" d="M38.2739 4.3C45.6367 11.6628 45.6367 23.5972 38.2739 30.96L42.5739 35.26C52.3055 25.5284 52.3055 9.73158 42.5739 0L38.2739 4.3Z" fill="#ED1B2E"/>
<path fill-rule="evenodd" clip-rule="evenodd" d="M11.5987 4.3C4.23587 11.6628 4.23587 23.5972 11.5987 30.96L7.29868 35.26C-2.43289 25.5284 -2.43289 9.73158 7.29868 0L11.5987 4.3ZM31.8162 24.5175C28.0141 28.3196 21.8432 28.3196 18.0411 24.5175C14.239 20.7154 14.239 14.5446 18.0411 10.7425C21.8432 6.94035 28.0141 6.94035 31.8162 10.7425L36.1162 6.44245C29.9454 0.271574 19.9271 0.271574 13.7562 6.44245C7.58535 12.6133 7.58535 22.6316 13.7562 28.8025C19.9271 34.9733 29.9454 34.9733 36.1162 28.8025L31.8162 24.5024V24.5175ZM29.7945 12.7793C32.4801 15.4649 32.4801 19.8102 29.7945 22.4958C27.1089 25.1814 22.7636 25.1814 20.078 22.4958C17.3924 19.8102 17.3924 15.4649 20.078 12.7793C22.7636 10.0937 27.1089 10.0937 29.7945 12.7793Z" fill="url(#paint0_linear_108_354)"/>
<path d="M69.5683 5.88442V29.3911H62.3413V5.88442H69.5683ZM97.2845 14.1676C97.2543 13.4434 97.1487 12.8851 96.9676 12.5079C96.7866 12.1307 96.4245 11.8592 95.9115 11.6932C95.3985 11.5272 94.6592 11.4367 93.7087 11.4216C92.7581 11.4065 91.5059 11.4065 89.9518 11.4065C88.1866 11.4065 86.7683 11.4216 85.682 11.4669C84.5957 11.497 83.7508 11.6781 83.1473 11.9799C82.5438 12.2816 82.1213 12.7946 81.9101 13.5188C81.6988 14.2279 81.5932 15.269 81.5932 16.642C81.5932 18.377 81.6536 19.7198 81.7592 20.6704C81.8648 21.6209 82.1817 22.33 82.7097 22.7827C83.2378 23.2353 84.0525 23.5069 85.1539 23.5974C86.2553 23.6728 87.7943 23.7181 89.7708 23.7181C91.2494 23.7181 92.4866 23.7181 93.4673 23.7181C94.448 23.7181 95.2325 23.6276 95.8059 23.4314C96.3792 23.2504 96.7866 22.9184 97.0431 22.4658C97.2845 22.0132 97.4202 21.3191 97.4202 20.3988H104.466C104.466 20.5798 104.466 20.7609 104.481 20.9118C104.496 21.0627 104.496 21.2286 104.496 21.4248C104.496 22.6167 104.421 23.6728 104.27 24.5932C104.119 25.5135 103.848 26.283 103.47 26.9167C103.093 27.5504 102.595 28.0634 101.962 28.4255C101.328 28.8027 100.543 29.029 99.608 29.1346C98.0841 29.3006 96.6357 29.4213 95.2929 29.5118C93.935 29.5872 92.6978 29.6325 91.5813 29.6325C87.8999 29.6325 84.4448 29.5269 81.2613 29.3156C80.009 29.2402 78.9529 28.9686 78.0929 28.5009C77.2178 28.0332 76.5238 27.3391 75.9806 26.4339C75.4374 25.5286 75.0452 24.397 74.8038 23.0391C74.5624 21.6813 74.4266 20.0367 74.4266 18.1356C74.4266 16.9437 74.4417 15.8423 74.4567 14.8465C74.4869 13.8507 74.5624 12.9304 74.7283 12.1006C74.8792 11.2707 75.1206 10.5013 75.4374 9.80722C75.7543 9.11319 76.2069 8.4795 76.7953 7.92126C77.3838 7.36301 78.0627 6.92547 78.8624 6.62371C79.6469 6.32196 80.5673 6.09564 81.6234 5.95985C82.6795 5.82406 83.8715 5.73353 85.2143 5.68827C86.5571 5.65809 88.0508 5.62793 89.7255 5.62793C92.6073 5.62793 94.9911 5.68827 96.862 5.80897C98.7329 5.92968 100.196 6.26161 101.283 6.78968C102.369 7.33284 103.108 8.17775 103.531 9.32442C103.953 10.4711 104.18 12.0855 104.195 14.1525H97.2845V14.1676ZM125.423 11.7686V29.3911H118.196V11.7686H107.665V5.88442H135.788V11.7686H125.423Z" fill="#004990"/>
<defs>
<linearGradient id="paint0_linear_108_354" x1="11.5987" y1="30.9751" x2="36.1162" y2="6.45754" gradientUnits="userSpaceOnUse">
<stop stop-color="#198CCA"/>
<stop offset="1" stop-color="#004990"/>
</linearGradient>
</defs>
</svg>
